# xmcd
# Copyright (C) 1995-1998 Ti Kan
#
# Track frame offsets:
#       150
#       18371
#       33464
#       52648
#       69481
#       86635
#       101158
#       114491
#       130264
#       161955
#
# Disc length: 2384 seconds
#
# Revision: 0
# Processed by: cddbd v1.5.2PL0 Copyright (c) Steve Scherf et al.
# Submitted via: CD-Import v1.0
#
DISCID=7f094e0a
DTITLE=Phumaso and Smack - Post Scriptum
DYEAR=2009
DGENRE=
TTITLE0=Psintro
TTITLE1=Lungeflügel
TTITLE2=Hands Up!
TTITLE3=Don't Front Feat. Pag's
TTITLE4=Lms
TTITLE5=Das Isch Halt Winti
TTITLE6=Swagerbagmovement
TTITLE7=3 Kings
TTITLE8=Startschuss Endspurt Remix
TTITLE9=Psoutro
EXTD=
EXTT0=
EXTT1=
EXTT2=
EXTT3=
EXTT4=
EXTT5=
EXTT6=
EXTT7=
EXTT8=
EXTT9=
PLAYORDER=
